<svg width="20" height="12" viewBox="0 0 20 12" fill="none" xmlns="http://www.w3.org/2000/svg">
<path d="M10 7.24251L3.80503 1.04751C3.47715 0.721576 3.03361 0.538629 2.57128 0.538629C2.10896 0.538629 1.66542 0.721576 1.33753 1.04751C1.17351 1.2102 1.04332 1.40375 0.954472 1.61701C0.865627 1.83026 0.819885 2.05899 0.819885 2.29001C0.819885 2.52103 0.865627 2.74977 0.954472 2.96302C1.04332 3.17628 1.17351 3.36983 1.33753 3.53251L8.75753 10.9525C8.92022 11.1165 9.11377 11.2467 9.32702 11.3356C9.54027 11.4244 9.76901 11.4702 10 11.4702C10.2311 11.4702 10.4598 11.4244 10.673 11.3356C10.8863 11.2467 11.0798 11.1165 11.2425 10.9525L18.75 3.53251C18.9122 3.36899 19.0405 3.17507 19.1276 2.96185C19.2147 2.74863 19.2589 2.52033 19.2575 2.29001C19.2589 2.0597 19.2147 1.83139 19.1276 1.61818C19.0405 1.40496 18.9122 1.21103 18.75 1.04751C18.4221 0.721576 17.9786 0.538629 17.5163 0.538629C17.054 0.538629 16.6104 0.721576 16.2825 1.04751L10 7.24251Z" fill="#35E6E9"/>
</svg>
